PathFileType	4	(X/Y/Z)	traj.trc
DataRate	CameraRate	NumFrames	NumMarkers	Units	OrigDataRate	OrigDataStartFrame	OrigNumFrames
30.00	30.00	100	1	mm	30.00	1	100
Frame#	Time	wrist		
		X1	Y1	Z1

0	0.0	100.0	900.0	200.0
1	0.10101010101010101	100.0	900.0	200.0
2	0.20202020202020202	100.00149969392442	899.9985003060757	199.9985003060756
3	0.30303030303030304	100.00887636416479	899.9911236358353	199.99112363583524
4	0.40404040404040403	100.02770529933807	899.972294700662	199.97229470066193
5	0.5050505050505051	100.0632057590995	899.9367942409006	199.93679424090053
6	0.6060606060606061	100.12024846948927	899.8797515305107	199.87975153051073
7	0.7070707070707071	100.20336311827904	899.7966368817209	199.79663688172099
8	0.8080808080808081	100.3167458503185	899.6832541496815	199.68325414968152
9	0.9090909090909091	100.46426676288193	899.535733237118	199.53573323711808
10	1.0101010101010102	100.64947740101482	899.3505225989852	199.3505225989852
11	1.1111111111111112	100.87561825288032	899.1243817471197	199.12438174711968
12	1.2121212121212122	101.1456262451059	898.8543737548941	198.8543737548941
13	1.3131313131313131	101.46214223812986	898.5378577618702	198.53785776187016
14	1.4141414141414141	101.82751852154789	898.1724814784521	198.1724814784521
15	1.5151515151515151	102.24382630945969	897.7561736905403	197.75617369054032
16	1.6161616161616161	102.71286323581545	897.2871367641845	197.28713676418457
17	1.7171717171717171	103.23616084976243	896.7638391502376	196.76383915023757
18	1.8181818181818181	103.8149921109916	896.1850078890085	196.1850078890084
19	1.9191919191919191	104.45037888508408	895.549621114916	195.54962111491594
20	2.0202020202020203	105.14309943885776	894.8569005611423	194.85690056114225
21	2.121212121212121	105.89369593571392	894.1063040642862	194.10630406428612
22	2.2222222222222223	106.70248193098367	893.2975180690164	193.29751806901635
23	2.323232323232323	107.5695498672746	892.4304501327255	192.4304501327254
24	2.4242424242424243	108.4947785698173	891.5052214301827	191.50522143018273
25	2.525252525252525	109.47784074181195	890.5221592581881	190.52215925818805
26	2.6262626262626263	110.51821045977488	889.4817895402251	189.48178954022515
27	2.727272727272727	111.61517066888504	888.3848293311149	188.384829331115
28	2.8282828282828283	112.76782067833075	887.2321793216693	187.23217932166926
29	2.929292929292929	113.97508365665604	886.024916343344	186.024916343344
30	3.0303030303030303	115.2357141271074	884.7642858728926	184.76428587289263
31	3.131313131313131	116.54830546298022	883.4516945370198	183.4516945370198
32	3.2323232323232323	117.91129738296539	882.0887026170346	182.0887026170346
33	3.3333333333333335	119.32298344649588	880.6770165535041	180.67701655350413
34	3.4343434343434343	120.78151854909329	879.2184814509068	179.21848145090672
35	3.5353535353535355	122.28492641771435	877.7150735822856	177.71507358228567
36	3.6363636363636362	123.8311071060976	876.1688928939025	176.1688928939024
37	3.7373737373737375	125.41784449010984	874.5821555098902	174.58215550989019
38	3.8383838383838382	127.0428137630928	872.9571862369072	172.95718623690726
39	3.9393939393939394	128.70358893120948	871.2964110687906	171.29641106879052
40	4.040404040404041	130.3976503087911	869.6023496912089	169.6023496912089
41	4.141414141414141	132.12239201368325	867.8776079863168	167.87760798631678
42	4.242424242424242	133.87512946259272	866.1248705374073	166.1248705374073
43	4.343434343434343	135.6531068664339	864.3468931335661	164.3468931335661
44	4.444444444444445	137.45350472567546	862.5464952743246	162.54649527432454
45	4.545454545454545	139.2734473256869	860.7265526743131	160.72655267431313
46	4.646464646464646	141.11001023208496	858.889989767915	158.88998976791504
47	4.747474747474747	142.96022778608045	857.0397722139196	157.03977221391958
48	4.848484848484849	144.8211005998245	855.1788994001755	155.17889940017554
49	4.94949494949495	146.6896030517553	853.3103969482447	153.31039694824466
50	5.05050505050505	148.56269078194484	851.4373092180551	151.4373092180552
51	5.151515151515151	150.43730818744498	849.562691812555	149.56269181255502
52	5.252525252525253	152.3103959176345	847.6896040823655	147.6896040823655
53	5.353535353535354	154.1788983695654	845.8211016304347	145.82110163043467
54	5.454545454545454	156.03977118330943	843.9602288166907	143.9602288166906
55	5.555555555555555	157.88998873730486	842.1100112626951	142.1100112626951
56	5.656565656565657	159.72655164370298	840.2734483562971	140.27344835629708
57	5.757575757575758	161.54649424371436	838.4535057562856	138.4535057562856
58	5.858585858585858	163.34689210295593	836.653107897044	136.65310789704404
59	5.959595959595959	165.12486950679713	834.875130493203	134.87513049320287
60	6.0606060606060606	166.87760695570657	833.1223930442935	133.1223930442934
61	6.161616161616162	168.60234866059875	831.3976513394012	131.39765133940128
62	6.262626262626262	170.29641003818037	829.7035899618197	129.70358996181966
63	6.363636363636363	171.95718520629708	828.042814793703	128.04281479370295
64	6.4646464646464645	173.58215447928	826.4178455207201	126.41784552072
65	6.565656565656566	175.16889186329226	824.8311081367078	124.83110813670775
66	6.666666666666667	176.71507255167552	823.2849274483245	123.28492744832451
67	6.767676767676767	178.2184804202966	821.7815195797035	121.78151957970344
68	6.8686868686868685	179.67701552289398	820.322984477106	120.32298447710605
69	6.96969696969697	181.0887015864245	818.9112984135755	118.91129841357555
70	7.070707070707071	182.45169350640967	817.5483064935904	117.54830649359037
71	7.171717171717171	183.76428484228248	816.2357151577176	116.23571515771755
72	7.2727272727272725	185.0249153127338	814.9750846872662	114.97508468726619
73	7.373737373737374	186.2321782910591	813.7678217089409	113.7678217089409
74	7.474747474747475	187.3848283005048	812.6151716994952	112.61517169949519
75	7.575757575757575	188.481788509615	811.518211490385	111.51821149038501
76	7.6767676767676765	189.5221582275779	810.4778417724222	110.47784177242211
77	7.777777777777778	190.50522039957258	809.4947796004275	109.49477960042745
78	7.878787878787879	191.43044910211526	808.5695508978847	108.56955089788474
79	7.979797979797979	192.2975170384062	807.7024829615939	107.7024829615938
80	8.080808080808081	193.10630303367597	806.8936969663241	106.89369696632406
81	8.181818181818182	193.85689953053208	806.1431004694679	106.14310046946792
82	8.282828282828282	194.5496200843058	805.4503799156943	105.45037991569423
83	8.383838383838384	195.18500685839825	804.8149931416018	104.81499314160175
84	8.484848484848484	195.76383811962742	804.2361618803726	104.2361618803726
85	8.585858585858587	196.2871357335744	803.7128642664256	103.71286426642563
86	8.686868686868687	196.75617265993014	803.24382734007	103.24382734006987
87	8.787878787878787	197.17248044784193	802.8275195521582	102.82751955215808
88	8.88888888888889	197.53785673125998	802.4621432687401	102.46214326874004
89	8.98989898989899	197.85437272428393	802.1456272757162	102.14562727571608
90	9.09090909090909	198.1243807165095	801.8756192834906	101.87561928349051
91	9.191919191919192	198.35052156837503	801.6494784316251	101.64947843162501
92	9.292929292929292	198.53573220650787	801.4642677934922	101.46426779349214
93	9.393939393939394	198.6832531190713	801.3167468809288	101.3167468809287
94	9.494949494949495	198.79663585111078	801.2033641488892	101.20336414888925
95	9.595959595959595	198.87975049990052	801.1202495000995	101.12024950009949
96	9.696969696969697	198.9367932102903	801.0632067897097	101.06320678970971
97	9.797979797979798	198.97229367005176	801.0277063299484	101.02770632994826
98	9.8989898989899	198.99112260522506	801.008877394775	101.00887739477497
99	10.0	198.99849927546543	801.0015007245347	101.0015007245346
